{"title":"Dawn Of The Planet Of The Apes 2014 TS Xvid Mp3-MiLLENiUM","uid":10618396,"size":1733066400,"categoryP":"video","categoryS":"movies","magnet":"?xt=urn:btih:946afb501551f2f8bd0f59cead6a28261092c266&amp;dn=Dawn+Of+The+Planet+Of+The+Apes+2014+TS+Xvid+Mp3-MiLLENiUM&amp;tr=udp%3A%2F%2Ftracker.openbittorrent.com%3A80&amp;tr=udp%3A%2F%2Fopen.demonii.com%3A1337&amp;tr=udp%3A%2F%2Ftracker.coppersurfer.tk%3A6969&amp;tr=udp%3A%2F%2Fexodus.desync.com%3A6969","seeders":8,"leechers":2,"uploader":"lokioddin","files":4,"time":1406147859,"description":"SilverTorrent - Clean And Verified Torrents Download\n\n\n\nDawn Of The Planet Of The Apes 2014 TS Xvid Mp3-MiLLENiUM\n\nGeneral &lt;a href=&quot;\nhttp://www.imdb.com/title/tt2103281/&quot; rel=&quot;nofollow&quot; target=&quot;_NEW&quot;&gt;\nhttp://www.imdb.com/title/tt2103281/&lt;/a&gt;\nComplete name                            : Dawn Of The Planet Of The Apes 2014 TS Xvid Mp3-MiLLENiUM.avi\nSource video                             : A friend [THANKS !!!]\nSource Audio                             : EcHo-Another-MiLLENiUM Exclusive !!! [Cheers Bro!!]\nFormat                                   : AVI\nFormat/Info                              : Audio Video Interleave\nFile size                                : 1.57 GiB\nDuration                                 : 2h 1mn\nOverall bit rate                         : 1 851 Kbps\nWriting library                          : VirtualDub build 32842/release\n\nVideo\nID                                       : 0\nFormat                                   : MPEG-4 Visual\nFormat profile                           : Advanced Simple@L5\nFormat settings, BVOP                    : 2\nFormat settings, QPel                    : Yes\nFormat settings, GMC                     : No warppoints\nFormat settings, Matrix                  : Default (MPEG)\nCodec ID                                 : XVID\nCodec ID/Hint                            : XviD\nDuration                                 : 2h 1mn\nBit rate                                 : 1 650 Kbps\nWidth                                    : 720 pixels\nHeight                                   : 304 pixels\nDisplay aspect ratio                     : 2.35:1\nFrame rate                               : 24.000 fps\nColor space                              : YUV\nChroma subsampling                       : 4:2:0\nBit depth                                : 8 bits\nScan type                                : Progressive\nCompression mode                         : Lossy\nBits/(Pixel*Frame)                       : 0.314\nStream size                              : 1.40 GiB (89%)\nWriting library                          : XviD 1.2.1 (UTC 2008-12-04)\n\nAudio\nID                                       : 1\nFormat                                   : MPEG Audio\nFormat version                           : Version 1\nFormat profile                           : Layer 3\nCodec ID                                 : 55\nCodec ID/Hint                            : MP3\nDuration                                 : 2h 1mn\nBit rate mode                            : Constant\nBit rate                                 : 192 Kbps\nChannel(s)                               : 2 channels\nSampling rate                            : 44.1 KHz\nCompression mode                         : Lossy\nStream size                              : 167 MiB (10%)\nAlignment                                : Split accross interleaves\nInterleave, duration                     : 42 ms (1.00 video frame)\nInterleave, preload duration             : 500 ms\nWriting library                          : LAME3.98.\n\n &lt;a href=&quot;\nhttp://i.imgur.com/weqH4gN.png&quot; rel=&quot;nofollow&quot; target=&quot;_NEW&quot;&gt;\nhttp://i.imgur.com/weqH4gN.png&lt;/a&gt;\n &lt;a href=&quot;\nhttp://i.imgur.com/ADFtU5V.png&quot; rel=&quot;nofollow&quot; target=&quot;_NEW&quot;&gt;\nhttp://i.imgur.com/ADFtU5V.png&lt;/a&gt;\n &lt;a href=&quot;\nhttp://i.imgur.com/ycvlkCt.png&quot; rel=&quot;nofollow&quot; target=&quot;_NEW&quot;&gt;\nhttp://i.imgur.com/ycvlkCt.png&lt;/a&gt;\n\nSilverTorrent - Clean And Verified Torrents Download\n\n","torrent":{"xt":"urn:btih:946afb501551f2f8bd0f59cead6a28261092c266","amp;dn":"Dawn+Of+The+Planet+Of+The+Apes+2014+TS+Xvid+Mp3-MiLLENiUM","amp;tr":["udp%3A%2F%2Ftracker.openbittorrent.com%3A80","udp%3A%2F%2Fopen.demonii.com%3A1337","udp%3A%2F%2Ftracker.coppersurfer.tk%3A6969","udp%3A%2F%2Fexodus.desync.com%3A6969"],"infoHash":"946afb501551f2f8bd0f59cead6a28261092c266","infoHashBuffer":{"type":"Buffer","data":[148,106,251,80,21,81,242,248,189,15,89,206,173,106,40,38,16,146,194,102]},"announce":[],"urlList":[]}}